<svg xmlns="http://www.w3.org/2000/svg" viewBox="0 0 920.04 262.84"><defs><style>.cls-1,.cls-2,.cls-3{fill:#00aeef;stroke:#00aeef;stroke-miterlimit:2.61;stroke-width:9.19px}.cls-2,.cls-3{fill:#333;stroke:#333}</style></defs><title>Asset 1</title><g id="Layer_2" data-name="Layer 2"><g id="Layer_1-2" data-name="Layer 1"><path class="cls-1" d="M79.28 81.37c0-13.37-7.72-21.23-15.89-24.5 7.14-2.83 14.27-11 14.27-22.44 0-17.81-12.33-29-31.94-29H4.59v105.79h42.77c18.72 0 31.92-10.39 31.92-29.85zm-16-.75C63.25 90 57 96.81 45.87 96.81H20.62V64.59h25.25c11.13 0 17.38 6.67 17.38 16.03zM61.61 35c0 9.81-7 15.16-17.22 15.16H20.62V19.89h23.77c10.25 0 17.22 5.34 17.22 15.11zm113.32 44.59h-16.19c-2.53 10.69-9.8 18.11-21.53 18.11a21.1 21.1 0 0 1-15.59-6.39c-5.2-5.64-6.39-11.72-6.39-33s1.19-27.33 6.39-33A21.1 21.1 0 0 1 137.21 19c11.73 0 18.86 7.42 21.38 18.13h16.34C171.21 16 156.66 4.59 137.21 4.59a38.31 38.31 0 0 0-27.77 11.28C99 26.28 99.19 38 99.19 58.36s-.19 32.06 10.25 42.47a38.31 38.31 0 0 0 27.77 11.28c19.15 0 34.15-11.44 37.72-32.52z"/><path class="cls-2" d="M270.26 37.56c0-18.41-13.22-32.08-33.86-32.08h-40.09v105.74h16V69.64h24.06c20.63 0 33.89-13.64 33.89-32.08zm-16 0c0 11.14-7.56 17.52-18.7 17.52h-23.22V19.89h23.17c11.15 0 18.71 6.53 18.71 17.67zm112.57 73.66l-24.39-46.78c11.88-3.27 21.08-12.92 21.08-28.06 0-18-12.77-30.89-32.81-30.89h-41v105.73h16V66.67h20l22.28 44.55zm-19.3-74.7c0 10.41-7.28 16.48-18 16.48h-23.78V19.89h23.77c10.69 0 17.97 6.23 17.97 16.62zm111.63 21.84c0-20.34.3-32.08-10.09-42.48-7.28-7.27-16.64-11.28-27.92-11.28a37.82 37.82 0 0 0-27.77 11.28C383 26.28 383.13 38 383.13 58.36s-.16 32.06 10.25 42.47a37.82 37.82 0 0 0 27.77 11.28c11.28 0 20.64-4 27.92-11.28 10.39-10.41 10.09-22.13 10.09-42.47zm-16 0c0 21.23-1 27.17-6.23 32.81a22.24 22.24 0 0 1-31.48 0c-5.19-5.64-6.23-11.58-6.23-32.81s1-27.19 6.23-32.83a22.24 22.24 0 0 1 31.48 0c5.16 5.64 6.19 11.59 6.19 32.83zm113.76-20.8c0-18.41-13.22-32.08-33.86-32.08h-40.13v105.74h16V69.64H523c20.66 0 33.88-13.64 33.88-32.08zm-16 0c0 11.14-7.56 17.52-18.7 17.52H499V19.89h23.17c11.1 0 18.66 6.53 18.66 17.67zm102.98 73.66V96.81h-51.53V65h44V50.78h-44V19.89h51.53V5.48h-67.56v105.74zm99.05 0L718.6 64.44c11.88-3.27 21.08-12.92 21.08-28.06 0-18-12.77-30.89-32.81-30.89h-41v105.73h16V66.67h20l22.28 44.55zm-19.3-74.7c0 10.41-7.28 16.48-18 16.48h-23.73V19.89h23.77c10.68 0 17.96 6.23 17.96 16.62zM828 19.89V5.48h-74.2v14.41h29.11v91.33h16V19.89zm84.55-14.41H895L872.9 52 850.77 5.48h-17.51l31.62 62.22v43.52h16V67.7z"/><path class="cls-3" d="M93.32 151.62H76.39L52 228.54l-24.32-76.92H11.06l34.73 105.73h12.49z"/><path class="cls-2" d="M180.49 257.35l-38.76-105.73h-12.91L90.05 257.35h17.08l7.28-21.23h41.72l7.28 21.23zm-28.81-34.89h-32.52l16.48-46.94zm110.79 34.89v-14.4h-50.94v-91.33h-16v105.73z"/><path class="cls-3" d="M353.21 221.71v-70.09h-16V221c0 14.09-8.75 22.86-22 22.86s-21.83-8.77-21.83-22.86v-69.38h-16v70.09c0 21.83 16.34 36.53 37.88 36.53s37.95-14.7 37.95-36.53zm93.55 35.64v-14.4h-51.53v-31.78h44v-14.25h-44V166h51.53v-14.38h-67.57v105.73zm88.07-30.14c0-9.06-2.81-16.64-8.61-21.69-4.45-4-10-6.39-19.75-7.87l-12-1.78c-4.91-.73-9.2-2.52-11.87-4.89a12.57 12.57 0 0 1-4-9.81c0-9.34 6.83-16.47 19.31-16.47 8.91 0 16.48 1.92 23 8.16l10.25-10.09c-9.06-8.47-18.86-12-32.83-12-22 0-35.34 12.63-35.34 31 0 8.63 2.53 15.3 7.72 20.2 4.61 4.31 11.44 7.28 20 8.47l12.48 1.78c6.23.89 8.91 1.92 11.58 4.45 2.83 2.52 4.16 6.39 4.16 11 0 10.25-8 16.19-21.83 16.19-10.84 0-19.3-2.37-27-10.09l-10.69 10.55c10.09 10.23 21.53 14 37.42 14 22.1-.07 37.99-11.65 37.99-31.11z"/><path class="cls-1" d="M572.25 257.35v-18.1h-18.12v18.11zm97.27-31.62h-16.18c-2.53 10.69-9.8 18.11-21.53 18.11a21.1 21.1 0 0 1-15.59-6.39c-5.2-5.64-6.39-11.72-6.39-33s1.19-27.33 6.39-33a21.1 21.1 0 0 1 15.59-6.39c11.73 0 18.86 7.42 21.38 18.13h16.34c-3.72-21.09-18.27-32.53-37.72-32.53A38.31 38.31 0 0 0 604 162c-10.41 10.41-10.25 22.14-10.25 42.48S593.63 236.56 604 247a38.31 38.31 0 0 0 27.77 11.28c19.23-.03 34.23-11.47 37.75-32.55zm93.55-21.23c0-20.34.3-32.08-10.09-42.48-7.28-7.27-16.64-11.28-27.92-11.28A37.82 37.82 0 0 0 697.3 162c-10.41 10.42-10.3 22.15-10.3 42.5s-.16 32.06 10.25 42.47a37.82 37.82 0 0 0 27.77 11.28c11.28 0 20.64-4 27.92-11.28 10.43-10.41 10.14-22.13 10.14-42.47zm-16 0c0 21.23-1 27.17-6.23 32.81a22.24 22.24 0 0 1-31.48 0c-5.19-5.64-6.23-11.58-6.23-32.81s1-27.19 6.23-32.83a22.24 22.24 0 0 1 31.48 0c5.16 5.64 6.16 11.59 6.16 32.83zm133.06 52.86V151.62h-16l-30.3 65.78-30.89-65.78h-16v105.73h16v-70.68l25 51.53h11.76l24.36-51.53v70.69z"/></g></g></svg>